<svg xmlns="http://www.w3.org/2000/svg" width="365.28" height="365.28" style="enable-background:new 0 0 365.28 365.28" xml:space="preserve"><path d="M364.1 335.48c-19.6-32.44-40.4-64.26-59.99-96.7-3.67-6.11-14.07-3.67-13.46 3.68 0 14.07.61 27.54.61 41.61-9.79-10.4-12.24-22.64-14.07-37.33-1.23-6.12-3.68-12.85-10.4-14.69-10.41-3.06-22.04 7.35-30 12.86-20.2 14.07-38.55 30.6-60.58 42.22-25.7 12.86-26.32-5.5-20.81-25.7 5.5-21.42 15.3-42.84 26.32-61.81 19.58-33.05 42.22-67.32 47.73-105.88 3.06-21.42-7.95-53.85-34.88-52.63-33.05 1.22-71 25.7-92.42 50.18-12.24 12.24-82 104.04-88.74 51.41-4.9-38.55 26.93-85.68 45.9-117.5 2.45-4.29-3.67-8.57-6.73-4.9C28.72 49.68 9.74 87 1.18 124.34c-4.29 20.2 2.44 57.53 31.82 49.57 34.27-9.18 56.91-47.73 78.95-73.44 13.46-16.52 34.88-28.76 53.24-38.55 39.17-20.81 56.92 9.79 47.12 45.29-12.23 43.45-43.45 78.94-61.2 119.95-6.12 14.69-28.15 63.64-4.28 75.89 27.54 14.07 64.26-20.81 83.84-36.11-1.22.6 31.22-25.7 33.05-20.2 1.84 5.51 1.84 12.24 3.06 18.36 2.45 11.63 7.35 20.81 15.3 28.15-11.62-.6-23.25 0-34.88 1.84-6.12 1.22-6.73 10.4-1.84 13.46 34.89 19.59 74.06 24.48 111.39 37.33 5.5 2.45 11.01-4.9 7.34-10.4zM298 304.27c3.67 0 4.9-3.06 4.28-5.5a6.43 6.43 0 0 0 3.06-5.52v-24.48c12.24 19.59 24.48 38.56 36.72 58.14-23.26-6.73-47.13-11.62-69.16-20.8 7.96-.62 16.53-1.23 25.1-1.84z"/></svg>
